<svg width="48" height="50" viewBox="0 0 48 50" fill="none" xmlns="http://www.w3.org/2000/svg">
<path fill-rule="evenodd" clip-rule="evenodd" d="M18.3738 3.49015C20.9065 -0.896695 27.2384 -0.896703 29.7711 3.49014L34.6335 11.912L36.1837 7.56692L39.9711 8.9182L36.3893 18.9575L34.6972 18.648L25.9041 17.0398L26.6276 13.0841L31.1437 13.9101L26.2886 5.50078C25.3036 3.79479 22.8412 3.79479 21.8563 5.50078L17.5625 12.9379L14.08 10.9272L18.3738 3.49015ZM11.9373 20.2314L12.5154 21.8515L15.5192 30.2707L11.7318 31.6219L10.189 27.2979L5.33389 35.7072C4.34894 37.4132 5.58013 39.5457 7.55005 39.5457H16.1376V43.567H7.55005C2.48456 43.567 -0.681382 38.0834 1.85137 33.6966L6.71372 25.2747L2.17566 26.1047L1.45219 22.1491L11.9373 20.2314ZM38.3065 28.2907L42.6003 35.7277C43.5853 37.4337 42.3541 39.5662 40.3842 39.5662H30.6739L33.6473 36.0681L30.5833 33.4638L23.68 41.5854L30.5833 49.7069L33.6473 47.1026L30.6595 43.5875L40.3842 43.5875C45.4497 43.5875 48.6156 38.1039 46.0828 33.7171L41.789 26.28L38.3065 28.2907Z" fill="url(#paint0_linear_19_262)"/>
<path d="M22.1968 13.32V29.0616C22.1968 31.7357 21.4641 33.7807 19.9988 35.1964C18.556 36.6121 16.5609 37.32 14.0135 37.32C11.3083 37.32 9.14413 36.5672 7.521 35.0616C5.92041 33.556 5.12012 31.3874 5.12012 28.556H11.6803C11.7028 30.4211 12.3904 31.3537 13.743 31.3537C14.9603 31.3537 15.569 30.5897 15.569 29.0616V13.32H22.1968Z" fill="black"/>
<path d="M37.5151 24.8818C38.9128 25.1964 40.0174 25.893 40.829 26.9717C41.6631 28.0279 42.0801 29.2414 42.0801 30.6121C42.0801 32.6346 41.3813 34.2189 39.9836 35.365C38.5859 36.511 36.6246 37.0841 34.0997 37.0841H22.2982V13.32H33.7278C36.1625 13.32 38.0674 13.8593 39.4425 14.938C40.8402 16.0166 41.5391 17.5335 41.5391 19.4885C41.5391 20.8818 41.1671 22.0503 40.4232 22.9942C39.7018 23.9155 38.7324 24.5447 37.5151 24.8818ZM28.926 22.7582H32.2737C33.9419 22.7582 34.776 22.0728 34.776 20.702C34.776 19.2863 33.9419 18.5784 32.2737 18.5784H28.926V22.7582ZM32.7809 31.7582C34.4492 31.7582 35.2833 31.0616 35.2833 29.6683C35.2833 28.9492 35.0578 28.3987 34.607 28.0166C34.1786 27.6346 33.5587 27.4436 32.7471 27.4436H28.926V31.7582H32.7809Z" fill="black"/>
<path d="M27.9171 13.32L31.1435 13.9101L30.8028 13.32H33.7274C35.4549 13.32 36.9158 13.5915 38.1098 14.1346L36.3891 18.9575L25.904 17.0398L26.5843 13.32H27.9171Z" fill="url(#paint1_linear_19_262)"/>
<path d="M32.7836 37.0841H27.5059L30.5831 33.4638L33.6471 36.0681L32.7836 37.0841Z" fill="url(#paint2_linear_19_262)"/>
<path d="M15.4506 30.079C15.4273 30.1649 15.4005 30.2465 15.3702 30.3237L15.519 30.2706L15.4506 30.079Z" fill="url(#paint3_linear_19_262)"/>
<path d="M12.9071 31.2025C12.1063 30.8697 11.6972 29.9875 11.6799 28.556H10.6377L11.7316 31.6219L12.9071 31.2025Z" fill="url(#paint4_linear_19_262)"/>
<defs>
<linearGradient id="paint0_linear_19_262" x1="23.4801" y1="3.02754" x2="23.4801" y2="46.7113" gradientUnits="userSpaceOnUse">
<stop stop-color="#3BB2E0"/>
<stop offset="1" stop-color="#344EAA"/>
</linearGradient>
<linearGradient id="paint1_linear_19_262" x1="23.4799" y1="3.02753" x2="23.4799" y2="46.7113" gradientUnits="userSpaceOnUse">
<stop stop-color="#3BB2E0"/>
<stop offset="1" stop-color="#344EAA"/>
</linearGradient>
<linearGradient id="paint2_linear_19_262" x1="23.4799" y1="3.02753" x2="23.4799" y2="46.7113" gradientUnits="userSpaceOnUse">
<stop stop-color="#3BB2E0"/>
<stop offset="1" stop-color="#344EAA"/>
</linearGradient>
<linearGradient id="paint3_linear_19_262" x1="23.4799" y1="3.02753" x2="23.4799" y2="46.7113" gradientUnits="userSpaceOnUse">
<stop stop-color="#3BB2E0"/>
<stop offset="1" stop-color="#344EAA"/>
</linearGradient>
<linearGradient id="paint4_linear_19_262" x1="23.4799" y1="3.02753" x2="23.4799" y2="46.7113" gradientUnits="userSpaceOnUse">
<stop stop-color="#3BB2E0"/>
<stop offset="1" stop-color="#344EAA"/>
</linearGradient>
</defs>
</svg>
